<svg width="96" height="96" viewBox="0 0 96 96" fill="none" xmlns="http://www.w3.org/2000/svg">
<circle cx="48" cy="48" r="48" fill="#333333"/>
<path d="M48 40C45.7907 40 44 38.2093 44 36C44 33.7907 45.7907 32 48 32C50.2093 32 52 33.7907 52 36C52 38.2093 50.2093 40 48 40Z" fill="#F3AB33"/>
<path d="M37.3333 57.3332V46.6665C37.3333 45.1598 37.8547 43.7838 38.7013 42.6665H34.6667C33.1933 42.6665 32 43.8598 32 45.3332V53.3332H34.6667V59.9998C34.6667 60.7358 35.264 61.3332 36 61.3332H38.6667C39.4027 61.3332 40 60.7358 40 59.9998V57.3332H37.3333Z" fill="#F3AB33"/>
<path d="M50.6667 63.9998H45.3333C44.5973 63.9998 44 63.4025 44 62.6665V54.6665H40V46.6665C40 44.4572 41.7907 42.6665 44 42.6665H52C54.2093 42.6665 56 44.4572 56 46.6665V54.6665H52V62.6665C52 63.4025 51.4027 63.9998 50.6667 63.9998Z" fill="#F3AB33"/>
<path d="M37.3333 41.3333C35.86 41.3333 34.6666 40.14 34.6666 38.6667C34.6666 37.1933 35.86 36 37.3333 36C38.8066 36 40 37.1933 40 38.6667C40 40.14 38.8066 41.3333 37.3333 41.3333Z" fill="#F3AB33"/>
<path d="M58.6667 57.3332V46.6665C58.6667 45.1598 58.1453 43.7838 57.2987 42.6665H61.3333C62.8067 42.6665 64 43.8598 64 45.3332V53.3332H61.3333V59.9998C61.3333 60.7358 60.736 61.3332 60 61.3332H57.3333C56.5973 61.3332 56 60.7358 56 59.9998V57.3332H58.6667Z" fill="#F3AB33"/>
<path d="M58.6667 41.3333C60.14 41.3333 61.3333 40.14 61.3333 38.6667C61.3333 37.1933 60.14 36 58.6667 36C57.1933 36 56 37.1933 56 38.6667C56 40.14 57.1933 41.3333 58.6667 41.3333Z" fill="#F3AB33"/>
</svg>
