<svg width="96" height="96" viewBox="0 0 96 96" fill="none" xmlns="http://www.w3.org/2000/svg">
<circle cx="48" cy="48" r="48" fill="#333333"/>
<g clip-path="url(#clip0_871_1480)">
<path d="M62.6667 38.6671H59.4733C59.7947 38.0319 59.9744 37.3345 60 36.6231C59.9537 35.3654 59.4154 34.1762 58.5009 33.3116C57.5864 32.447 56.3689 31.9761 55.1107 32.0004C53.6119 32.065 52.1588 32.5353 50.9065 33.3612C49.6541 34.1871 48.6496 35.3375 48 36.6897C47.3573 35.3413 46.3604 34.1928 45.1158 33.3668C43.8712 32.5409 42.4255 32.0686 40.9333 32.0004C40.8827 32.0004 40.832 32.0004 40.7813 32.0004C39.5411 32.0024 38.3499 32.4852 37.4582 33.3473C36.5665 34.2093 36.0438 35.3836 36 36.6231V36.7111C36.026 37.3918 36.1984 38.0589 36.5053 38.6671H33.3333C32.9797 38.6671 32.6406 38.8075 32.3905 39.0576C32.1405 39.3076 32 39.6468 32 40.0004V44.0004C32 44.354 32.1405 44.6932 32.3905 44.9432C32.6406 45.1933 32.9797 45.3337 33.3333 45.3337H62.6667C63.0203 45.3337 63.3594 45.1933 63.6095 44.9432C63.8595 44.6932 64 44.354 64 44.0004V40.0004C64 39.6468 63.8595 39.3076 63.6095 39.0576C63.3594 38.8075 63.0203 38.6671 62.6667 38.6671ZM55.152 34.6671C55.6966 34.6529 56.226 34.8477 56.6315 35.2114C57.0371 35.5751 57.2882 36.0802 57.3333 36.6231C57.3144 37.1688 57.0854 37.6862 56.6941 38.0671C56.3028 38.448 55.7794 38.6629 55.2333 38.6671H49.9707C50.8 36.9884 52.4493 34.6671 55.152 34.6671ZM38.6667 36.6671C38.7008 36.1215 38.9431 35.6098 39.3435 35.2376C39.744 34.8655 40.272 34.6612 40.8187 34.6671C43.5773 34.6777 45.1933 36.9751 46.032 38.6671H40.832C40.2845 38.6712 39.756 38.4668 39.3538 38.0953C38.9516 37.7238 38.706 37.2132 38.6667 36.6671Z" fill="#F3AB33"/>
<path d="M50.6666 48V64H57.3333C58.3942 64 59.4116 63.5786 60.1617 62.8284C60.9119 62.0783 61.3333 61.0609 61.3333 60V48H50.6666Z" fill="#F3AB33"/>
<path d="M45.3333 48H34.6666V60C34.6666 61.0609 35.0881 62.0783 35.8382 62.8284C36.5883 63.5786 37.6058 64 38.6666 64H45.3333V48Z" fill="#F3AB33"/>
</g>
<defs>
<clipPath id="clip0_871_1480">
<rect width="32" height="32" fill="white" transform="translate(32 32)"/>
</clipPath>
</defs>
</svg>
