<svg width="24" height="24" viewBox="0 0 24 24" fill="none" xmlns="http://www.w3.org/2000/svg">
<path d="M18 12C16.8133 12 15.6533 12.3519 14.6666 13.0112C13.6799 13.6705 12.9109 14.6075 12.4567 15.7039C12.0026 16.8003 11.8838 18.0067 12.1153 19.1705C12.3468 20.3344 12.9182 21.4035 13.7574 22.2426C14.5965 23.0818 15.6656 23.6532 16.8295 23.8847C17.9933 24.1162 19.1997 23.9974 20.2961 23.5433C21.3925 23.0891 22.3295 22.3201 22.9888 21.3334C23.6481 20.3467 24 19.1867 24 18C24 16.4087 23.3679 14.8826 22.2426 13.7574C21.1174 12.6321 19.5913 12 18 12ZM21 19H19V21H17V19H15V17H17V15H19V17H21V19Z" fill="currentColor"/>
<path d="M23 3H18V1C18 0.734784 17.8946 0.48043 17.7071 0.292893C17.5196 0.105357 17.2652 0 17 0C16.7348 0 16.4804 0.105357 16.2929 0.292893C16.1054 0.48043 16 0.734784 16 1V3H8V1C8 0.734784 7.89464 0.48043 7.70711 0.292893C7.51957 0.105357 7.26522 0 7 0C6.73478 0 6.48043 0.105357 6.29289 0.292893C6.10536 0.48043 6 0.734784 6 1V3H1C0.734784 3 0.48043 3.10536 0.292893 3.29289C0.105357 3.48043 0 3.73478 0 4L0 22C0 22.2652 0.105357 22.5196 0.292893 22.7071C0.48043 22.8946 0.734784 23 1 23H10V21H2V7H22V11H24V4C24 3.73478 23.8946 3.48043 23.7071 3.29289C23.5196 3.10536 23.2652 3 23 3Z" fill="currentColor"/>
</svg>
