<svg width="24" height="24" viewBox="0 0 24 24" fill="none" xmlns="http://www.w3.org/2000/svg">
<path d="M12 2.16216C15.2041 2.16216 15.5837 2.1744 16.849 2.23213C18.019 2.28548 18.6544 2.48097 19.0773 2.64531C19.6374 2.863 20.0371 3.12303 20.457 3.54293C20.877 3.96287 21.137 4.36261 21.3547 4.92274C21.519 5.34559 21.7145 5.98098 21.7679 7.15097C21.8256 8.41632 21.8378 8.79587 21.8378 12C21.8378 15.2041 21.8256 15.5837 21.7679 16.849C21.7145 18.019 21.519 18.6544 21.3547 19.0773C21.137 19.6374 20.877 20.0371 20.4571 20.457C20.0371 20.877 19.6374 21.137 19.0773 21.3547C18.6544 21.519 18.019 21.7145 16.849 21.7679C15.5839 21.8256 15.2044 21.8378 12 21.8378C8.79563 21.8378 8.41618 21.8256 7.15097 21.7679C5.98098 21.7145 5.34559 21.519 4.92274 21.3547C4.36261 21.137 3.96287 20.877 3.54297 20.457C3.12308 20.0371 2.863 19.6374 2.64531 19.0773C2.48097 18.6544 2.28548 18.019 2.23213 16.849C2.1744 15.5837 2.16216 15.2041 2.16216 12C2.16216 8.79587 2.1744 8.41632 2.23213 7.15097C2.28548 5.98098 2.48097 5.34559 2.64531 4.92274C2.863 4.36261 3.12303 3.96287 3.54297 3.54297C3.96287 3.12303 4.36261 2.863 4.92274 2.64531C5.34559 2.48097 5.98098 2.28548 7.15097 2.23213C8.41632 2.1744 8.79587 2.16216 12 2.16216ZM12 0C8.741 0 8.33234 0.0138139 7.05242 0.0722133C5.77516 0.13047 4.90283 0.333343 4.13954 0.629961C3.35044 0.936629 2.68123 1.34695 2.01406 2.01406C1.34695 2.68123 0.936629 3.35044 0.630008 4.13954C0.333343 4.90283 0.13047 5.77516 0.0722133 7.05242C0.0138139 8.33234 0 8.741 0 12C0 15.259 0.0138139 15.6677 0.0722133 16.9476C0.13047 18.2248 0.333343 19.0972 0.630008 19.8605C0.936629 20.6496 1.34695 21.3188 2.01406 21.9859C2.68123 22.6531 3.35044 23.0634 4.13954 23.37C4.90283 23.6667 5.77516 23.8695 7.05242 23.9278C8.33234 23.9862 8.741 24 12 24C15.259 24 15.6677 23.9862 16.9476 23.9278C18.2248 23.8695 19.0972 23.6667 19.8605 23.37C20.6496 23.0634 21.3188 22.6531 21.9859 21.9859C22.6531 21.3188 23.0634 20.6496 23.37 19.8605C23.6667 19.0972 23.8695 18.2248 23.9278 16.9476C23.9862 15.6677 24 15.259 24 12C24 8.741 23.9862 8.33234 23.9278 7.05242C23.8695 5.77516 23.6667 4.90283 23.37 4.13954C23.0634 3.35044 22.6531 2.68123 21.9859 2.01406C21.3188 1.34695 20.6496 0.936629 19.8605 0.629961C19.0972 0.333343 18.2248 0.13047 16.9476 0.0722133C15.6677 0.0138139 15.259 0 12 0Z" fill="currentColor"/>
<path d="M11.5573 5.84326C8.28094 5.84326 5.625 8.60219 5.625 12.0055C5.625 15.4089 8.28094 18.1678 11.5573 18.1678C14.8336 18.1678 17.4895 15.4089 17.4895 12.0055C17.4895 8.60219 14.8336 5.84326 11.5573 5.84326ZM11.5573 16.0056C9.43052 16.0056 7.70649 14.2147 7.70649 12.0055C7.70649 9.79635 9.43052 8.00547 11.5573 8.00547C13.684 8.00547 15.408 9.79635 15.408 12.0055C15.408 14.2147 13.684 16.0056 11.5573 16.0056Z" fill="currentColor"/>
<path d="M19.1104 5.59619C19.1104 6.3914 18.4898 7.03609 17.7241 7.03609C16.9586 7.03609 16.3379 6.3914 16.3379 5.59619C16.3379 4.80094 16.9586 4.15625 17.7241 4.15625C18.4898 4.15625 19.1104 4.80094 19.1104 5.59619Z" fill="currentColor"/>
</svg>
