<svg width="24" height="21" viewBox="0 0 24 21" fill="none" xmlns="http://www.w3.org/2000/svg">
<path fill-rule="evenodd" clip-rule="evenodd" d="M24 2.39818C23.1177 2.80536 22.1681 3.07958 21.1722 3.20339C22.1889 2.57019 22.9697 1.56804 23.3368 0.373935C22.3865 0.9606 21.3314 1.38523 20.2107 1.61541C19.3123 0.621567 18.0316 0 16.6165 0C13.8975 0 11.6928 2.29016 11.6928 5.11463C11.6928 5.51515 11.7368 5.90571 11.8208 6.28048C7.72829 6.06775 4.10053 4.03104 1.67189 0.936504C1.24792 1.69186 1.00553 2.5702 1.00553 3.50754C1.00553 5.28166 1.87347 6.84721 3.19579 7.7646C2.38784 7.73801 1.62949 7.50783 0.964734 7.12475V7.18873C0.964734 9.66752 2.66302 11.7341 4.91407 12.2053C4.5013 12.3216 4.06613 12.3848 3.61736 12.3848C3.29978 12.3848 2.991 12.3524 2.69022 12.2926C3.31658 14.3243 5.13566 15.8034 7.28991 15.845C5.60523 17.2161 3.48217 18.0346 1.17512 18.0346C0.776747 18.0346 0.384774 18.0105 0 17.9623C2.17905 19.4131 4.76688 20.2607 7.5475 20.2607C16.6037 20.2607 21.5562 12.4671 21.5562 5.70877C21.5562 5.4869 21.5522 5.26587 21.5418 5.04732C22.5049 4.32438 23.34 3.4236 24 2.39818Z" fill="currentColor"/>
</svg>
